<?xml version="1.0" encoding="utf-8"?>
<!-- Generator: Adobe Illustrator 16.0.0, SVG Export Plug-In . SVG Version: 6.00 Build 0)  -->
<!DOCTYPE svg PUBLIC "-//W3C//DTD SVG 1.0//EN" "http://www.w3.org/TR/2001/REC-SVG-20010904/DTD/svg10.dtd">
<svg version="1.0" id="Layer_1" xmlns="http://www.w3.org/2000/svg" xmlns:xlink="http://www.w3.org/1999/xlink" x="0px" y="0px"
	 width="100px" height="100px" viewBox="0 0 100 100" enable-background="new 0 0 100 100" xml:space="preserve">
<path d="M50,40c-5.521,0-10,4.477-10,10c0,5.521,4.479,10,10,10c5.524,0,10-4.479,10-10C60,44.477,55.524,40,50,40z M50,53.333
	c-1.843,0-3.333-1.49-3.333-3.333s1.49-3.333,3.333-3.333s3.333,1.49,3.333,3.333S51.843,53.333,50,53.333z"/>
<rect x="15.048" y="68.047" transform="matrix(-0.7071 0.7071 -0.7071 -0.7071 99.3292 101.6178)" width="27.143" height="6.666"/>
<rect x="57.808" y="68.047" transform="matrix(0.7071 0.7071 -0.7071 0.7071 71.3828 -29.5664)" width="27.143" height="6.666"/>
<rect x="57.809" y="25.287" transform="matrix(0.7071 -0.7071 0.7071 0.7071 0.6692 58.8558)" width="27.142" height="6.666"/>
<rect x="15.048" y="25.287" transform="matrix(-0.7071 -0.7071 0.7071 -0.7071 28.6203 69.0947)" width="27.143" height="6.666"/>
</svg>
