<?xml version="1.0" encoding="utf-8"?>
<!-- Generator: Adobe Illustrator 16.0.0, SVG Export Plug-In . SVG Version: 6.00 Build 0)  -->
<!DOCTYPE svg PUBLIC "-//W3C//DTD SVG 1.0//EN" "http://www.w3.org/TR/2001/REC-SVG-20010904/DTD/svg10.dtd">
<svg version="1.0" id="Layer_1" xmlns="http://www.w3.org/2000/svg" xmlns:xlink="http://www.w3.org/1999/xlink" x="0px" y="0px"
	 width="100px" height="100px" viewBox="0 0 100 100" enable-background="new 0 0 100 100" xml:space="preserve">
<path d="M87.732,12.266c-5.778-5.782-21.23-0.137-37.731,12.747C33.495,12.129,18.043,6.487,12.268,12.266
	C6.485,18.048,12.131,33.497,25.01,50C12.134,66.504,6.485,81.956,12.268,87.734c5.778,5.781,21.234,0.134,37.734-12.747
	c16.5,12.881,31.953,18.528,37.731,12.747C93.516,81.952,87.867,66.5,74.986,50C87.87,33.497,93.516,18.045,87.732,12.266z
	 M81.215,16.662c1.222,0,1.739,0.254,1.804,0.319c0.336,0.335,1.205,4.118-2.973,12.821c-2.266,4.721-5.473,9.784-9.379,14.912
	c-2.303-2.664-4.776-5.327-7.414-7.964c-2.634-2.63-5.298-5.104-7.957-7.406C66.277,20.992,75.927,16.662,81.215,16.662z
	 M66.404,49.998c-2.442,2.867-5.06,5.733-7.869,8.542c-2.865,2.869-5.724,5.479-8.531,7.863c-2.868-2.438-5.733-5.056-8.54-7.863
	c-2.869-2.867-5.482-5.727-7.866-8.532c2.438-2.872,5.053-5.733,7.859-8.541c2.872-2.868,5.73-5.485,8.537-7.869
	c2.872,2.442,5.738,5.06,8.543,7.866C61.407,44.333,64.021,47.188,66.404,49.998z M16.663,18.784c0-1.217,0.254-1.738,0.318-1.803
	c0.332-0.332,4.116-1.205,12.821,2.976c4.721,2.266,9.78,5.473,14.912,9.376c-2.664,2.305-5.333,4.779-7.97,7.416
	c-2.631,2.634-5.105,5.298-7.403,7.958C20.993,33.721,16.663,24.071,16.663,18.784z M18.785,83.339
	c-1.221,0-1.741-0.257-1.804-0.318c-0.335-0.336-1.205-4.119,2.976-12.822c2.266-4.72,5.47-9.783,9.376-14.911
	c2.305,2.663,4.779,5.33,7.416,7.967c2.631,2.635,5.294,5.105,7.958,7.407C33.722,79.009,24.072,83.339,18.785,83.339z
	 M83.338,81.216c0,1.219-0.257,1.739-0.319,1.801c-0.335,0.336-4.118,1.208-12.821-2.973c-4.717-2.266-9.78-5.473-14.908-9.379
	c2.66-2.303,5.327-4.776,7.96-7.411c2.635-2.634,5.108-5.297,7.411-7.96C79.008,66.279,83.338,75.925,83.338,81.216z"/>
</svg>
