<?xml version="1.0" encoding="utf-8"?>
<!-- Generator: Adobe Illustrator 16.0.0, SVG Export Plug-In . SVG Version: 6.00 Build 0)  -->
<!DOCTYPE svg PUBLIC "-//W3C//DTD SVG 1.0//EN" "http://www.w3.org/TR/2001/REC-SVG-20010904/DTD/svg10.dtd">
<svg version="1.0" id="Layer_1" xmlns="http://www.w3.org/2000/svg" xmlns:xlink="http://www.w3.org/1999/xlink" x="0px" y="0px"
	 width="100px" height="100px" viewBox="0 0 100 100" enable-background="new 0 0 100 100" xml:space="preserve">
<path d="M50,45.508c-5.524,0-10,4.476-10,10s4.476,10,10,10s10-4.476,10-10S55.524,45.508,50,45.508z M50,58.841
	c-1.843,0-3.333-1.49-3.333-3.333s1.49-3.333,3.333-3.333s3.333,1.49,3.333,3.333S51.843,58.841,50,58.841z"/>
<path d="M82.737,57.207c0.029-0.566,0.085-1.126,0.085-1.699c0-12.741-7.263-23.753-17.858-29.196
	c-0.195-8.118-6.8-14.645-14.964-14.645s-14.772,6.526-14.968,14.645c-10.596,5.443-17.857,16.455-17.857,29.196
	c0,0.573,0.059,1.133,0.084,1.702C12.927,59.841,10,64.558,10,70c0,8.284,6.716,14.997,15,15c2.63,0,5.065-0.735,7.214-1.924
	c5.13,3.313,11.224,5.257,17.786,5.257c6.56,0,12.656-1.943,17.783-5.257C69.932,84.265,72.366,85,74.997,85
	C83.284,85,90,78.284,90,70C90,64.558,87.073,59.837,82.737,57.207z M50,18.337c4.603,0,8.333,3.727,8.333,8.333
	c0,4.603-3.73,8.333-8.333,8.333s-8.333-3.73-8.333-8.333C41.667,22.063,45.397,18.337,50,18.337z M25,78.333
	c-4.603-0.003-8.333-3.73-8.333-8.333c0.003-4.606,3.73-8.333,8.333-8.337c4.603,0.004,8.333,3.73,8.333,8.337
	C33.333,74.603,29.603,78.333,25,78.333z M62.595,78.435C58.86,80.491,54.567,81.667,50,81.667c-4.57,0-8.86-1.176-12.598-3.236
	C39.04,76.028,40,73.128,40,70c0.003-8.291-6.716-15-15-15.003c-0.391,0-0.755,0.084-1.14,0.113
	c0.141-9.342,5.176-17.471,12.65-21.985C38.929,38.164,44.036,41.67,50,41.67c5.967,0,11.071-3.506,13.489-8.545
	c7.475,4.515,12.507,12.644,12.646,21.985c-0.384-0.029-0.748-0.113-1.139-0.113C66.712,55,60,61.712,59.997,70
	C59.997,73.128,60.957,76.028,62.595,78.435z M74.997,78.333c-4.604,0-8.33-3.73-8.33-8.333c0-4.606,3.727-8.333,8.33-8.333
	c4.605,0,8.336,3.727,8.336,8.333C83.333,74.603,79.603,78.333,74.997,78.333z"/>
</svg>
